<?xml version="1.0" encoding="utf-8"?>
<!-- Generator: Adobe Illustrator 15.1.0, SVG Export Plug-In . SVG Version: 6.00 Build 0)  -->
<!DOCTYPE svg PUBLIC "-//W3C//DTD SVG 1.1//EN" "http://www.w3.org/Graphics/SVG/1.1/DTD/svg11.dtd">
<svg version="1.1" id="Layer_1" xmlns="http://www.w3.org/2000/svg" xmlns:xlink="http://www.w3.org/1999/xlink" x="0px" y="0px"
	 width="438px" height="214px" viewBox="0 0 438 214" enable-background="new 0 0 438 214" xml:space="preserve">
<rect fill="#FFFFFF" width="438" height="214"/>
<g>
	<rect x="10.744" y="46.987" fill="#E5E5E5" width="169.667" height="156.001"/>
	<g>
		<polyline fill="none" stroke="#000000" stroke-linecap="square" stroke-linejoin="round" points="180.41,196.988 180.41,202.988 
			174.41,202.988 		"/>
		
			<line fill="none" stroke="#000000" stroke-linecap="square" stroke-linejoin="round" stroke-dasharray="12.1282,12.1282" x1="162.282" y1="202.988" x2="22.808" y2="202.988"/>
		<polyline fill="none" stroke="#000000" stroke-linecap="square" stroke-linejoin="round" points="16.744,202.988 10.744,202.988 
			10.744,196.988 		"/>
		
			<line fill="none" stroke="#000000" stroke-linecap="square" stroke-linejoin="round" stroke-dasharray="11.077,11.077" x1="10.744" y1="185.911" x2="10.744" y2="58.525"/>
		<polyline fill="none" stroke="#000000" stroke-linecap="square" stroke-linejoin="round" points="10.744,52.987 10.744,46.987 
			16.744,46.987 		"/>
		
			<line fill="none" stroke="#000000" stroke-linecap="square" stroke-linejoin="round" stroke-dasharray="12.1282,12.1282" x1="28.872" y1="46.987" x2="168.346" y2="46.987"/>
		<polyline fill="none" stroke="#000000" stroke-linecap="square" stroke-linejoin="round" points="174.41,46.987 180.41,46.987 
			180.41,52.987 		"/>
		
			<line fill="none" stroke="#000000" stroke-linecap="square" stroke-linejoin="round" stroke-dasharray="11.077,11.077" x1="180.41" y1="64.064" x2="180.41" y2="191.45"/>
	</g>
</g>
<g>
	<rect x="256.896" y="46.987" fill="#E5E5E5" width="169.658" height="156.001"/>
	<g>
		<polyline fill="none" stroke="#000000" stroke-miterlimit="10" points="426.555,196.988 426.555,202.988 420.556,202.988 		"/>
		
			<line fill="none" stroke="#000000" stroke-miterlimit="10" stroke-dasharray="12.1282,12.1282" x1="408.428" y1="202.988" x2="268.96" y2="202.988"/>
		<polyline fill="none" stroke="#000000" stroke-miterlimit="10" points="262.896,202.988 256.896,202.988 256.896,196.988 		"/>
		
			<line fill="none" stroke="#000000" stroke-miterlimit="10" stroke-dasharray="11.077,11.077" x1="256.896" y1="185.911" x2="256.896" y2="58.525"/>
		<polyline fill="none" stroke="#000000" stroke-miterlimit="10" points="256.896,52.987 256.896,46.987 262.896,46.987 		"/>
		
			<line fill="none" stroke="#000000" stroke-miterlimit="10" stroke-dasharray="12.1282,12.1282" x1="275.024" y1="46.987" x2="414.491" y2="46.987"/>
		<polyline fill="none" stroke="#000000" stroke-miterlimit="10" points="420.556,46.987 426.555,46.987 426.555,52.987 		"/>
		
			<line fill="none" stroke="#000000" stroke-miterlimit="10" stroke-dasharray="11.077,11.077" x1="426.555" y1="64.064" x2="426.555" y2="191.45"/>
	</g>
</g>
<text transform="matrix(1 0 0 1 41.0469 86.9907)" font-family="'MyriadPro-Regular'" font-size="20">DSL Program</text>
<text transform="matrix(1 0 0 1 37.0469 149.6177)"><tspan x="0" y="0" font-family="'MyriadPro-Regular'" font-size="20">Machine code</tspan><tspan x="34.51" y="24" font-family="'MyriadPro-Regular'" font-size="20">string</tspan></text>
<text transform="matrix(1 0 0 1 53.1567 20.9873)" font-family="'MyriadPro-Regular'" font-size="20">Computer</text>
<text transform="matrix(1 0 0 1 277.7852 161.2422)" font-family="'MyriadPro-Regular'" font-size="20">User code ROM</text>
<text transform="matrix(1 0 0 1 296.5752 86.9907)" font-family="'MyriadPro-Regular'" font-size="20">Interpreter</text>
<text transform="matrix(1 0 0 1 318.8936 20.9873)" font-family="'MyriadPro-Regular'" font-size="20">FPGA</text>
<g>
	<line fill="#E5E5E5" x1="95.576" y1="99" x2="95.576" y2="130.5"/>
	<g>
		
			<line fill="none" stroke="#000000" stroke-linecap="square" stroke-linejoin="round" x1="95.576" y1="99" x2="95.576" y2="124.53"/>
		<g>
			<polygon points="91.873,121.722 95.576,123.295 99.279,121.722 95.576,130.5 			"/>
		</g>
	</g>
</g>
<g>
	<line fill="#E5E5E5" x1="151.333" y1="156.239" x2="274" y2="156.239"/>
	<g>
		
			<line fill="none" stroke="#000000" stroke-linecap="square" stroke-linejoin="round" x1="151.333" y1="156.239" x2="268.03" y2="156.239"/>
		<g>
			<polygon points="265.222,159.942 266.795,156.239 265.222,152.536 274,156.239 			"/>
		</g>
	</g>
</g>
<g>
	<line fill="#E5E5E5" x1="341.731" y1="130.5" x2="341.731" y2="99"/>
	<g>
		
			<line fill="none" stroke="#000000" stroke-linecap="square" stroke-linejoin="round" x1="341.731" y1="130.5" x2="341.731" y2="104.97"/>
		<g>
			<polygon points="345.435,107.778 341.731,106.205 338.028,107.778 341.731,99 			"/>
		</g>
	</g>
</g>
</svg>
