<?xml version="1.0" encoding="utf-8"?>
<!-- Generator: Adobe Illustrator 15.1.0, SVG Export Plug-In . SVG Version: 6.00 Build 0)  -->
<!DOCTYPE svg PUBLIC "-//W3C//DTD SVG 1.1//EN" "http://www.w3.org/Graphics/SVG/1.1/DTD/svg11.dtd">
<svg version="1.1" id="Layer_1" xmlns="http://www.w3.org/2000/svg" xmlns:xlink="http://www.w3.org/1999/xlink" x="0px" y="0px"
	 width="46.833px" height="33.333px" viewBox="0 0 46.833 33.333" enable-background="new 0 0 46.833 33.333" xml:space="preserve">
<rect stroke="#000000" stroke-miterlimit="10" width="46.833" height="33.333"/>
<g>
	<g>
		<g>
			<g>
				<path fill="#90ADB4" d="M6.789,2.309c-0.316,4.42,0.678,8.966,1.146,13.346C8.398,20,9.897,29.138,5.17,31.845
					c-1.134,0.649,0.523,1.148,1.242,0.736c4.258-2.438,3.987-8.446,3.824-12.684C10.01,14.012,8.312,8.003,8.734,2.116
					C8.799,1.208,6.843,1.542,6.789,2.309L6.789,2.309z"/>
			</g>
		</g>
		<g>
			<g>
				<path fill="#90ADB4" d="M4.769,4.117c3.229-0.065,6.42,0.712,9.375,1.982c2.679,1.152,7.324,4.605,5.456,8.113
					c-1.333,2.502-7.114,2.492-9.512,2.702c-2.774,0.243-5.564,0.241-8.338,0.482c-0.987,0.086-1.572,1.281-0.238,1.165
					c4.172-0.363,8.349-0.33,12.499-0.977c2.615-0.408,6.246-1.113,7.617-3.688c1.687-3.167-2.168-6.601-4.459-8.012
					c-3.343-2.06-7.773-3.027-11.671-2.949C4.725,2.951,3.464,4.143,4.769,4.117L4.769,4.117z"/>
			</g>
		</g>
	</g>
	<g>
		<g>
			<path fill="#90ADB4" d="M38.767,3.274c-4.545-0.127-11.123-1.876-14.629,1.997c-3.715,4.104,3.121,8.025,6.031,9.369
				c5.485,2.532,16.736,4.541,13.787,13.056c-2.572,7.427-15.84,3.252-19.321-1.166c-0.51-0.647-2.357,0.087-1.775,0.826
				c5.329,6.764,23.145,8.982,23.536-2.781c0.189-5.72-7.597-8.535-11.927-9.935c-3.137-1.015-6.505-2.493-8.626-5.104
				c-3.049-3.752,3.423-5.362,6.2-5.31c2.016,0.038,4.021,0.318,6.036,0.374C38.958,4.625,40.076,3.311,38.767,3.274L38.767,3.274z"
				/>
		</g>
	</g>
</g>
</svg>
