<?xml version="1.0" encoding="UTF-8" standalone="no"?>
<!-- Created with Inkscape (http://www.inkscape.org/) -->

<svg
   xmlns:dc="http://purl.org/dc/elements/1.1/"
   xmlns:cc="http://creativecommons.org/ns#"
   xmlns:rdf="http://www.w3.org/1999/02/22-rdf-syntax-ns#"
   xmlns:svg="http://www.w3.org/2000/svg"
   xmlns="http://www.w3.org/2000/svg"
   xmlns:sodipodi="http://sodipodi.sourceforge.net/DTD/sodipodi-0.dtd"
   xmlns:inkscape="http://www.inkscape.org/namespaces/inkscape"
   width="256"
   height="256"
   id="svg3774"
   version="1.1"
   inkscape:version="0.48.4 r9939"
   sodipodi:docname="favicon-face.svg">
  <defs
     id="defs3776" />
  <sodipodi:namedview
     id="base"
     pagecolor="#ffffff"
     bordercolor="#666666"
     borderopacity="1.0"
     inkscape:pageopacity="0.0"
     inkscape:pageshadow="2"
     inkscape:zoom="1.4"
     inkscape:cx="127.28102"
     inkscape:cy="125.15434"
     inkscape:document-units="px"
     inkscape:current-layer="layer1"
     showgrid="false"
     inkscape:window-width="1231"
     inkscape:window-height="776"
     inkscape:window-x="49"
     inkscape:window-y="24"
     inkscape:window-maximized="1" />
  <metadata
     id="metadata3779">
    <rdf:RDF>
      <cc:Work
         rdf:about="">
        <dc:format>image/svg+xml</dc:format>
        <dc:type
           rdf:resource="http://purl.org/dc/dcmitype/StillImage" />
        <dc:title></dc:title>
      </cc:Work>
    </rdf:RDF>
  </metadata>
  <g
     inkscape:label="Layer 1"
     inkscape:groupmode="layer"
     id="layer1"
     transform="translate(0,-796.36218)">
    <path
       style="color:#000000;fill:none;stroke:#000000;stroke-width:5;stroke-linecap:round;stroke-linejoin:round;stroke-miterlimit:4;stroke-opacity:1;stroke-dasharray:none;stroke-dashoffset:10;marker:none;visibility:visible;display:inline;overflow:visible;enable-background:accumulate"
       d="m 166.57143,854.07647 c 0,-0.95238 0.18678,-1.92326 0,-2.85715 -0.066,-0.33018 -0.5637,-0.41311 -0.71429,-0.71428 -0.10648,-0.21296 0.10648,-0.50133 0,-0.71429 -2.36898,-2.36899 0.33672,0.67344 -0.71428,-1.42857 -0.15059,-0.30117 -0.47619,-0.47619 -0.71429,-0.71429 -0.23809,-0.23809 -0.47619,-0.47619 -0.71428,-0.71428 -0.2381,-0.2381 -0.56371,-0.41312 -0.71429,-0.71429 -0.10648,-0.21296 0.10648,-0.50132 0,-0.71428 -0.15058,-0.30117 -0.47619,-0.47619 -0.71429,-0.71429 -1.63773,-1.63774 0.45176,0.30117 -2.14285,-1.42857 -0.28017,-0.18678 -0.47619,-0.47619 -0.71429,-0.71429 -0.23809,-0.23809 -0.39485,-0.6078 -0.71428,-0.71428 -0.45176,-0.15059 -0.9666,0.11549 -1.42858,0 -0.5165,-0.12913 -0.93425,-0.51656 -1.42857,-0.71429 -5.17898,-2.07159 0.24457,0.0489 -3.57143,-0.71428 -0.7383,-0.14766 -1.40017,-0.59051 -2.14285,-0.71429 -0.70457,-0.11743 -1.42857,0 -2.14286,0 -2.38095,0 -4.7619,0 -7.14286,0 -2.61904,0 -5.23809,0 -7.85714,0 -0.95238,0 -1.91212,-0.11813 -2.85714,0 -0.97411,0.12177 -1.90476,0.47619 -2.85715,0.71429 -0.95238,0.23809 -1.89882,0.50132 -2.85714,0.71428 -8.1613,1.81363 0.53939,-0.31342 -6.42857,1.42857 -0.95238,0.2381 -1.92583,0.40385 -2.85714,0.71429 -1.21639,0.40546 -2.35505,1.02311 -3.57143,1.42857 -0.93132,0.31044 -1.92583,0.40385 -2.85714,0.71429 -4.23473,1.41157 -2.69479,1.19768 -6.42858,2.85714 -1.17167,0.52074 -2.380948,0.95238 -3.571424,1.42857 -10.586825,4.23473 2.580344,-1.14682 -6.428572,2.85714 -1.171672,0.52075 -2.450599,0.80589 -3.571428,1.42858 -1.040664,0.57814 -1.81648,1.56471 -2.857143,2.14285 -1.120829,0.62269 -2.4506,0.80589 -3.571429,1.42857 -1.040663,0.57815 -1.904762,1.42858 -2.857142,2.14286 -0.952381,0.71429 -1.904762,1.42857 -2.857143,2.14286 -2.745756,2.05932 -3.360417,2.30986 -5.714286,5 -1.567868,1.79185 -2.717846,3.92244 -4.285714,5.71428 -0.886921,1.01363 -2.030245,1.79399 -2.857143,2.85715 -1.255655,1.61441 -2.622602,4.53092 -3.571429,6.42857 -2.716266,5.43253 -1.549675,2.80276 -3.571428,7.85714 -1.095473,2.73868 -2.071129,4.97509 -2.857143,7.85714 -0.319439,1.17128 -0.476191,2.38096 -0.714286,3.57143 -0.238095,1.19048 -0.604371,2.36237 -0.714286,3.57143 -0.523809,5.76191 0.436508,2.61905 0,7.85714 -0.139814,1.67778 -0.714285,3.31642 -0.714285,5 0,1.44828 0.594012,2.84244 0.714285,4.28572 0.118637,1.42364 -0.109566,2.86135 0,4.28571 0.129126,1.67863 0.594335,3.32069 0.714286,5 0.118745,1.66243 -0.127827,3.33825 0,5 0.111078,1.44401 0.494065,2.85428 0.714286,4.28572 0.256001,1.66401 0.47619,3.33333 0.714285,5 0.238096,1.66666 0.335716,3.35952 0.714286,5 0.338604,1.46728 1.089968,2.81843 1.428572,4.28571 0.37857,1.64047 0.361525,3.35379 0.714285,5 0.36319,1.69488 1.038809,3.31103 1.428572,5 2.184387,9.46568 -1.102012,-1.26011 2.142857,9.28572 2.164155,7.0335 0.640106,1.66427 3.571428,9.28571 0.540568,1.40548 0.888005,2.88024 1.428572,4.28571 0.650929,1.69242 1.491928,3.30759 2.142857,5 0.540567,1.40548 0.8494,2.89571 1.428571,4.28572 0.614305,1.47429 1.428572,2.85709 2.142858,4.28569 2.214278,4.4286 2.005515,4.454 5,8.5714 2.605914,3.5832 3.217996,3.9323 6.428571,7.1429 4.649451,4.6495 2.256768,2.5197 7.142857,6.4286 3.015245,2.4122 4.439162,3.7204 7.857143,5.7143 4.34475,2.5344 3.98466,1.9035 8.57143,3.5714 3.12426,1.1361 4.52225,2.0234 7.85714,2.8571 1.40504,0.3513 2.85714,0.4762 4.28572,0.7143 1.42857,0.2381 2.84244,0.594 4.28571,0.7143 1.42364,0.1186 2.85714,0 4.28571,0 1.42858,0 2.85715,0 4.28572,0 3.89591,0 5.31501,0.202 9.28571,-0.7143 1.46729,-0.3386 2.85715,-0.9524 4.28572,-1.4286 1.42857,-0.4761 2.85714,-0.9523 4.28571,-1.4285 2.00022,-0.6668 5.86932,-1.8632 7.85714,-2.8572 1.24176,-0.6208 2.38096,-1.4285 3.57143,-2.1428 1.19048,-0.7143 2.38096,-1.4286 3.57143,-2.1429 1.19048,-0.7143 2.47556,-1.2905 3.57143,-2.1428 1.06316,-0.8269 1.90476,-1.9048 2.85714,-2.8572 10.04524,-10.0452 -2.36639,2.6293 6.42857,-7.1428 8.5613,-9.5126 -1.21305,2.65 6.42858,-7.8572 3.3009,-4.5387 2.71961,-2.7234 5.71428,-7.8571 0.80478,-1.37964 1.38563,-2.87945 2.14286,-4.28573 6.38675,-11.86111 -0.27879,1.27187 5,-9.28572 0.71428,-1.42857 1.5695,-2.79498 2.14286,-4.28571 0.62224,-1.61783 0.95238,-3.33334 1.42857,-5 0.47619,-1.66667 1.03881,-3.31103 1.42857,-5 0.37165,-1.61048 1.22952,-7.89239 1.42857,-9.28572 0.2381,-1.66666 0.59434,-3.32069 0.71429,-5 0.11874,-1.66243 0,-3.33333 0,-5 0,-1.66666 0,-3.33333 0,-5 0,-1.66666 0,-3.33333 0,-5 0,-1.90476 0.11881,-3.81323 0,-5.71428 -0.11974,-1.91585 -0.47619,-3.80953 -0.71429,-5.71429 -0.2381,-1.90476 -0.47619,-3.80952 -0.71429,-5.71428 -0.23809,-1.90477 -0.36052,-3.82758 -0.71428,-5.71429 -0.36183,-1.92976 -0.92268,-3.8172 -1.42857,-5.71429 -0.44662,-1.67483 -0.88044,-3.35559 -1.42857,-5 -1.38978,-4.16931 -2.5803,-6.73498 -4.28572,-10.71428 -0.71428,-1.66667 -1.33193,-3.37815 -2.14286,-5 -1.86243,-3.72487 -3.88699,-6.69595 -6.42857,-10 -1.1338,-1.47395 -2.38095,-2.85714 -3.57143,-4.28572 -1.19047,-1.42857 -2.37024,-2.86613 -3.57142,-4.28571 -12.54974,-14.83151 2.76435,3.11222 -7.85715,-8.57143 -1.25089,-1.37598 -2.2565,-2.97079 -3.57143,-4.28571 -1.31492,-1.31493 -2.84647,-2.39387 -4.28571,-3.57143 -2.33239,-1.90832 -5.20818,-4.28792 -7.85714,-5.71429 -1.59654,-0.85967 -3.33334,-1.42857 -5,-2.14285"
       id="path4449"
       inkscape:connector-curvature="0" />
    <path
       style="color:#000000;fill:none;stroke:#000000;stroke-width:5;stroke-linecap:round;stroke-linejoin:round;stroke-miterlimit:4;stroke-opacity:1;stroke-dasharray:none;stroke-dashoffset:10;marker:none;visibility:visible;display:inline;overflow:visible;enable-background:accumulate"
       d="m 208,956.93361 c -0.95238,0 -1.90476,0 -2.85714,0 -0.47619,0 -0.95238,0 -1.42857,0 -0.47619,0 -0.97682,-0.15059 -1.42858,0 -0.31943,0.10648 -0.43412,0.52751 -0.71428,0.71428 -0.44298,0.29532 -1.05211,0.33783 -1.42857,0.71429 -1.24354,1.24354 -0.43138,1.44262 -0.71429,2.85714 -0.14766,0.7383 -0.71428,1.38994 -0.71428,2.14286 0,0.75292 0.56662,1.40456 0.71428,2.14286 0.0934,0.46694 -0.11549,0.9666 0,1.42857 0.3777,1.51078 2.06065,3.19373 3.57143,3.57143 1.05605,0.26401 2.01438,-0.0822 2.85714,-0.71429 0.53875,-0.40406 0.95238,-0.95238 1.42857,-1.42857 1.09313,-1.09313 2.25644,-2.06966 2.85715,-3.57143 0.17685,-0.44213 0,-0.95238 0,-1.42857 0,-2.36358 0.31944,-4.58185 -2.14286,-6.42857 -0.95238,-0.71429 -2.39292,0.16836 -3.57143,0 -0.52704,-0.0753 -0.89617,-0.71429 -1.42857,-0.71429 -0.75292,0 -1.40455,0.56663 -2.14286,0.71429 -0.46694,0.0934 -0.97681,-0.15059 -1.42857,0 -0.31944,0.10648 -0.47619,0.47619 -0.71428,0.71428 -0.47619,0.47619 -1.17847,0.80331 -1.42858,1.42858 -0.26527,0.66319 0.11743,1.43829 0,2.14285 -0.4884,2.93041 -1.14286,1.28566 -0.71428,4.28572 0.33481,2.34366 0.96697,3.65648 2.14286,5.71428 0.50779,0.88863 1.8369,2.95929 2.85714,3.57143 1.56694,0.94016 2.57915,0.71429 4.28571,0.71429 0.71429,0 1.46523,0.22587 2.14286,0 0.93716,-0.31239 2.92122,-1.9902 3.57143,-2.85715 0.42688,-0.56917 1.42857,-3.09125 1.42857,-3.57142 0,-0.5324 -0.47619,-0.95239 -0.71429,-1.42858 -0.23809,-0.47619 -0.39484,-1.00265 -0.71428,-1.42857 -0.40406,-0.53875 -0.95238,-0.95238 -1.42857,-1.42857 -1.32875,-1.32874 -1.76931,-1.95608 -3.57143,-2.85714 -2.76633,-1.38317 -1.74415,-0.24917 -5,-0.71429 -0.74536,-0.10648 -1.38994,-0.71428 -2.14286,-0.71428 -0.5324,0 -0.95238,0.47619 -1.42857,0.71428 -0.47619,0.2381 -1.00265,0.39485 -1.42857,0.71429 -0.74044,0.55533 -1.96904,1.81421 -2.14286,2.85714 -0.15657,0.93942 0,1.90476 0,2.85714 0,3.12455 -0.17324,1.4499 0.71429,5 0.23809,0.95239 0.32758,1.95483 0.71428,2.85715 0.33817,0.78905 0.95238,1.42857 1.42857,2.14285 0.47619,0.71429 0.82155,1.53584 1.42858,2.14286 0.98723,0.98724 2.89144,1.91048 4.28571,2.14286 0.70457,0.11743 1.44244,0.14008 2.14286,0 0.70456,-0.14091 3.39112,-1.96255 3.57143,-2.14286 0.37646,-0.37646 0.51655,-0.93425 0.71428,-1.42857 0.40075,-1.00186 1.00783,-2.39728 0.71429,-3.57143 -0.12913,-0.5165 -0.47619,-0.95238 -0.71429,-1.42857 -0.23809,-0.47619 -0.39485,-1.00265 -0.71428,-1.42857 -0.79725,-1.063 -2.44684,-2.29485 -3.57143,-2.85714 -0.67344,-0.33672 -1.42857,-0.47619 -2.14286,-0.71429 -0.71429,-0.2381 -1.42857,-0.47619 -2.14286,-0.71429 -0.71428,-0.23809 -1.40018,-0.5905 -2.14285,-0.71428 -1.33557,-0.2226 -3.10984,0.009 -4.28572,0.71428 -1.68956,1.01374 -2.35919,3.25718 -2.85714,5 -0.26969,0.94392 -0.71429,1.87546 -0.71429,2.85715 0,1.21405 0.47619,2.38095 0.71429,3.57143 0.23809,1.19047 0.45092,2.38628 0.71428,3.57142 0.21296,0.95832 0.3696,1.93796 0.71429,2.85715 0.74481,1.98617 1.75289,3.78764 3.57143,5 0.62647,0.41764 1.42857,0.47619 2.14286,0.71428 0.71428,0.2381 1.38993,0.71429 2.14285,0.71429 1.47864,0 3.20229,-1.42058 4.28572,-2.14286 0.71428,-0.47619 1.53583,-0.82154 2.14285,-1.42857 0.37647,-0.37646 0.47619,-0.95238 0.71429,-1.42857 0.2381,-0.47619 0.60987,-0.90651 0.71429,-1.42857 0.32664,-1.63322 -0.11844,-2.79609 -0.71429,-4.28572 -0.19773,-0.49432 -0.33782,-1.05211 -0.71429,-1.42857 -0.60702,-0.60702 -1.42857,-0.95238 -2.14285,-1.42857 -0.71429,-0.47619 -1.42857,-0.95238 -2.14286,-1.42857 -2.15205,-1.4347 -2.46252,-1.76965 -5,-2.85714 -0.69205,-0.2966 -1.3975,-0.60781 -2.14286,-0.71429 -0.94281,-0.13469 -1.90476,0 -2.85714,0 -0.71429,0 -1.46523,-0.22588 -2.14286,0 -0.81441,0.27147 -1.47251,0.89229 -2.14285,1.42857 -1.57924,1.26339 -1.64241,1.56961 -2.14286,3.57143 -0.94776,3.79103 -0.71429,3.28673 -0.71429,7.14286 0,4.78548 -0.23347,2.40407 0.71429,7.14285 0.23809,1.19048 0.22121,2.46202 0.71428,3.57143 0.85186,1.91668 2.45471,3.37018 4.28572,4.28568 0.67343,0.3367 1.3975,0.6078 2.14286,0.7143 0.9428,0.1347 1.93319,0.231 2.85714,0 1.033,-0.2582 1.90476,-0.9524 2.85714,-1.4286 0.95238,-0.4761 2.03915,-0.7469 2.85714,-1.4285 0.6595,-0.5496 0.95239,-1.42859 1.42858,-2.14288 0.47619,-0.71428 1.04465,-1.37502 1.42857,-2.14285 0.67613,-1.35227 0.96477,-2.78282 0.71428,-4.28572 -0.12378,-0.74268 -0.47619,-1.42857 -0.71428,-2.14286 -0.2381,-0.71428 -0.29664,-1.51638 -0.71429,-2.14285 -0.56033,-0.8405 -1.42857,-1.42857 -2.14286,-2.14286 -0.71428,-0.71429 -1.36683,-1.49617 -2.14285,-2.14286 -1.89845,-1.58204 -2.77708,-1.5869 -5,-2.85714 -0.74536,-0.42592 -1.32845,-1.1571 -2.14286,-1.42857 -0.67763,-0.22588 -1.42857,0 -2.14286,0 -0.71428,0 -1.47966,-0.26528 -2.14285,0 -0.62527,0.25011 -0.95239,0.95238 -1.42858,1.42857 -0.47619,0.47619 -1.1274,0.82623 -1.42857,1.42857 -0.43902,0.87805 -0.47619,1.90476 -0.71428,2.85714 -1.00302,4.01208 -0.71429,1.87546 -0.71429,6.42858 0,4.91468 -0.28016,3.38211 0.71429,7.85714 0.46837,2.10769 0.56685,3.42399 2.14285,4.99999 1.95686,1.9569 2.36987,1.4286 5,1.4286 0.71429,0 1.45606,0.1962 2.14286,0 1.02383,-0.2925 1.93264,-0.9003 2.85714,-1.4286 1.78776,-1.0216 2.94269,-1.9598 4.28572,-3.5714 1.02837,-1.23406 1.8744,-2.675 2.14286,-4.28573 0.28821,-1.72929 -0.0779,-2.69482 -0.71429,-4.28572 -0.19773,-0.49432 -0.44037,-0.97204 -0.71429,-1.42857 -0.44167,-0.73613 -0.82154,-1.53583 -1.42857,-2.14286 -0.60702,-0.60702 -1.42857,-0.95238 -2.14285,-1.42857 -0.71429,-0.47619 -1.35381,-1.0904 -2.14286,-1.42857 -2.07089,-0.88753 -2.95173,-0.71429 -5,-0.71429 -0.95238,0 -1.94141,-0.26163 -2.85714,0 -0.82544,0.23584 -1.47251,0.8923 -2.14286,1.42858 -2.97069,2.37654 -4.2827,6.41351 -5,10 -0.28403,1.42015 -0.58317,2.84338 -0.71429,4.28573 -0.30354,3.3389 -0.0384,3.4177 0.71429,6.4285 0.54644,2.1858 0.49859,3.3558 2.14286,5 0.72228,0.7223 3.12382,2.1429 4.28571,2.1429 0.75292,0 1.45081,-0.4177 2.14286,-0.7143 1.43836,-0.6164 3.73408,-1.8022 5,-2.8571 0.77602,-0.6467 1.42857,-1.4286 2.14285,-2.1429 0.71429,-0.7143 1.58253,-1.3023 2.14286,-2.1428 0.41765,-0.6265 0.47619,-1.4286 0.71429,-2.1429 0.601,-1.803 1.03604,-2.3552 0.71428,-4.28571 -0.12378,-0.74267 -0.24394,-1.55492 -0.71428,-2.14285 -0.53628,-0.67035 -1.42857,-0.95238 -2.14286,-1.42857 -0.71429,-0.47619 -1.42857,-0.95239 -2.14286,-1.42858 -2.95967,-1.97311 -1.31002,-1.22036 -5,-2.14285 -0.95238,-0.2381 -1.87545,-0.71429 -2.85714,-0.71429 -0.98169,0 -1.91322,0.4446 -2.85714,0.71429 -2.28831,0.6538 -3.09626,0.9534 -5,2.85714 -1.60145,1.60145 -2.66614,3.67738 -3.57143,5.71432 -0.52074,1.1716 -1.09121,2.3344 -1.42857,3.5714 -0.38107,1.3972 -0.59402,2.8424 -0.71429,4.2857 -0.23149,2.7779 -0.0834,5.1981 0.71429,7.8571 0.75622,2.5208 1.34719,4.2315 3.57143,5.7143 1.33306,0.8887 3.5571,0.8746 5,0.7143 2.52833,-0.2809 4.31615,-0.7346 6.42857,-2.1428 1.99238,-1.3283 4.81757,-3.8732 6.42857,-5.7143 0.78393,-0.8959 1.45091,-1.8884 2.14286,-2.8572 0.49897,-0.6985 0.95238,-1.4285 1.42857,-2.1428 1.26984,-1.9048 1.89031,-1.977 1.42857,-4.2857 -0.30667,-1.5334 -1.54761,-2.2024 -2.85714,-2.8572 -0.67344,-0.3367 -1.45082,-0.4177 -2.14286,-0.7143 -0.9787,-0.4194 -1.82414,-1.1703 -2.85714,-1.4285 -0.92395,-0.231 -1.90477,0 -2.85715,0 -0.95238,0 -1.93319,-0.231 -2.85714,0 -1.033,0.2582 -1.90476,0.9523 -2.85714,1.4285 -0.95238,0.4762 -1.99069,0.8097 -2.85715,1.4286 -0.82199,0.5871 -1.42857,1.4286 -2.14285,2.1429 -0.95238,0.9523 -2.11004,1.7364 -2.85715,2.8571 -0.71122,1.0668 -0.99039,2.3664 -1.42857,3.5714 -0.88636,2.4375 -1.87992,5.2278 -2.14285,7.8572 -0.11846,1.1845 0,2.3809 0,3.5714 0,1.1905 -0.28874,2.4165 0,3.5714 0.2082,0.8329 0.89229,1.4725 1.42857,2.1429 1.21655,1.5207 2.09621,2.1428 4.28571,2.1428 0.98169,0 1.90476,-0.4761 2.85714,-0.7142 0.95239,-0.2381 1.9791,-0.2753 2.85715,-0.7143 1.96732,-0.9837 4.24111,-3.5268 5.71428,-5 3.1425,-3.1425 2.54085,-2.2715 5,-5.7143 0.49898,-0.6986 1.09041,-1.3538 1.42857,-2.1429 0.82525,-1.9255 1.07968,-3.2005 0,-5 -0.67853,-1.1309 -2.59816,-2.2083 -3.57142,-2.8571 -2.21503,-1.4767 -2.16156,-1.7881 -5,-2.1429 -0.94503,-0.1181 -1.90477,0 -2.85715,0 -0.95238,0 -1.92744,-0.2066 -2.85714,0 -1.25165,0.2782 -2.39976,0.9079 -3.57143,1.4286 -0.97302,0.4325 -2.00531,0.7897 -2.85714,1.4286 -2.79188,2.0939 -3.24336,3.5008 -5,6.4285 -0.71429,1.1905 -1.56837,2.3076 -2.14286,3.5715 -1.58074,3.4776 -1.47514,4.899 -2.14286,8.5714 -0.21717,1.1945 -0.71428,2.3574 -0.71428,3.5714 0,0.5121 0.86492,4.7749 1.42857,5.7143 0.67897,1.1316 2.22301,2.1429 3.57143,2.1429 0.75292,0 1.4189,-0.5075 2.14286,-0.7143 0.94392,-0.2697 1.97909,-0.2753 2.85714,-0.7143 1.06479,-0.5324 1.86661,-1.4825 2.85714,-2.1429 1.15516,-0.7701 2.52661,-1.2286 3.57143,-2.1428 0.89592,-0.7839 1.42857,-1.9048 2.14286,-2.8572 0.71428,-0.9523 1.5119,-1.8476 2.14285,-2.8571 0.56434,-0.9029 1.00913,-1.8784 1.42858,-2.8571 0.64908,-1.5146 0.99042,-2.6289 0.71428,-4.2858 -0.23238,-1.3942 -1.15562,-3.2984 -2.14286,-4.2857 -0.60702,-0.607 -1.3975,-1.0026 -2.14285,-1.4285 -1.95612,-1.1178 -3.46437,-1.8617 -5.71429,-2.1429 -0.94502,-0.1181 -1.90476,0 -2.85714,0 -0.95238,0 -1.9332,-0.231 -2.85714,0 -2.5071,0.6268 -3.29345,1.8649 -5,3.5714 -0.71429,0.7143 -1.53677,1.3348 -2.14286,2.1429 -1.61049,2.1473 -2.72816,4.613 -3.57143,7.1428 -0.31044,0.9314 -0.50133,1.8989 -0.71429,2.8572 -0.26336,1.1851 -0.71428,2.3574 -0.71428,3.5714 0,0.9817 0.47619,1.9048 0.71428,2.8572 0.2381,0.9523 0.20921,2.0153 0.71429,2.8571 0.27392,0.4565 0.93425,0.5166 1.42857,0.7143 1.27443,0.5098 2.85665,1.1226 4.28572,0.7143 1.02382,-0.2925 1.90476,-0.9524 2.85714,-1.4286 0.95238,-0.4762 1.9542,-0.8642 2.85714,-1.4286 2.08299,-1.3018 4.11026,-3.1668 5.71429,-5 1.16176,-1.3277 3.0594,-3.9222 3.57143,-5.7143 0.19623,-0.6868 0,-1.4285 0,-2.1428 0,-0.7143 0.22587,-1.4652 0,-2.1429 -0.3549,-1.0646 -1.95685,-2.8212 -2.85715,-3.5714 -0.91455,-0.7621 -1.79235,-1.6105 -2.85714,-2.1429 -0.87805,-0.439 -1.93796,-0.3695 -2.85714,-0.7142 -3.98261,-1.4935 -1.72452,-1.9513 -6.42857,-1.4286 -3.13989,0.3489 -3.12948,0.9185 -5.71429,2.8571 -2.19094,1.6432 -3.98812,2.7807 -5.71429,5 -0.85234,1.0959 -1.42857,2.381 -2.14285,3.5715 -0.71429,1.1904 -1.62725,2.2824 -2.14286,3.5714 -0.45089,1.1272 -0.47619,2.3809 -0.71429,3.5714 -0.33567,1.6784 -1.01945,3.8833 -0.71428,5.7143 0.12378,0.7427 0.26253,1.5405 0.71428,2.1429 0.31944,0.4259 0.93426,0.5165 1.42858,0.7142 0.69907,0.2797 1.38993,0.7143 2.14285,0.7143 0.75293,0 1.45081,-0.4177 2.14286,-0.7143 1.43836,-0.6164 3.73409,-1.8022 5,-2.8571 0.77602,-0.6467 1.42857,-1.4286 2.14286,-2.1429 1.28717,-1.2871 2.82559,-2.5454 3.57143,-4.2857 0.88752,-2.0709 0.71428,-2.9517 0.71428,-5 0,-0.7143 0.14008,-1.4424 0,-2.1428 -0.36666,-1.8333 -2.85149,-3.4662 -4.28571,-4.2857 -0.96036,-0.5488 -3.66441,-1.9521 -5,-2.1429 -0.94281,-0.1347 -1.91434,-0.1347 -2.85715,0 -0.74535,0.1065 -1.45081,0.4177 -2.14285,0.7143 -0.9787,0.4194 -1.99069,0.8097 -2.85715,1.4286 -0.82199,0.5871 -1.48545,1.3759 -2.14285,2.1428 -0.77475,0.9039 -1.51191,1.8476 -2.14286,2.8572 -1.11221,1.7795 -2.10454,4.547 -2.85714,6.4285 -0.47619,1.1905 -1.17712,2.3142 -1.42857,3.5715 -0.23348,1.1673 0,2.3809 0,3.5714 0,1.4092 -0.22588,3.0322 0.71428,4.2857 0.31944,0.4259 0.93425,0.5166 1.42857,0.7143 0.69907,0.2796 1.38994,0.7143 2.14286,0.7143 0.75292,0 1.45081,-0.4177 2.14286,-0.7143 2.46029,-1.0544 5.54401,-2.7616 7.14285,-5 0.90703,-1.2698 1.69874,-3.4456 2.14286,-5 0.48221,-1.6877 1.0092,-3.2305 0.71429,-5 -0.12378,-0.7427 -0.24394,-1.5549 -0.71429,-2.1429 -0.53628,-0.6703 -1.47251,-0.8923 -2.14286,-1.4285 -2.89463,-2.3157 0.34999,-0.984 -4.28571,-2.1429 -3.78109,-0.9453 -1.87545,-0.7143 -5.71429,-0.7143 -0.95238,0 -1.93319,-0.231 -2.85714,0 -1.50882,0.3772 -4.70325,2.5604 -5.71428,3.5714 -0.8418,0.8419 -1.42858,1.9048 -2.14286,2.8572 -0.71429,0.9524 -1.42857,1.9048 -2.14286,2.8571 -0.71428,0.9524 -1.56471,1.8165 -2.14286,2.8572 -0.62268,1.1208 -1.06013,2.3433 -1.42857,3.5714 -0.34885,1.1629 -0.71428,2.3574 -0.71428,3.5714 0,0.753 0.47619,1.4286 0.71428,2.1429 0.0569,0.1707 0.96146,3.2211 1.42857,3.5714 1.83908,1.3793 2.44664,0.5255 4.28572,0 0.94392,-0.2697 1.95482,-0.3276 2.85714,-0.7143 0.70976,-0.3041 4.81706,-3.3885 5,-3.5714 0.8418,-0.8418 1.42857,-1.9048 2.14286,-2.8571 0.71428,-0.9524 1.5119,-1.8477 2.14286,-2.8572 1.14322,-1.8291 1.83816,-3.5814 2.14285,-5.7143 0.24788,-1.7351 -0.16743,-3.3594 -0.71428,-5 -0.16836,-0.505 -0.33783,-1.0521 -0.71429,-1.4285 -0.60702,-0.6071 -1.42857,-0.9524 -2.14286,-1.4286 -1.08342,-0.7223 -2.80708,-2.1429 -4.28571,-2.1429 -0.75292,0 -1.42857,0.4762 -2.14286,0.7143 -1.74873,0.5829 -3.45537,1.0396 -5,2.1429 -1.60712,1.1479 -3.1602,3.4993 -4.28571,5 -0.71429,0.9524 -1.56471,1.8165 -2.14286,2.8571 -1.58107,2.8459 -1.45965,4.0684 -2.14286,7.1429 -0.8371,3.7669 -1.07058,1.7882 0,5 0.2381,0.7143 0.26254,1.5405 0.71429,2.1428 0.31944,0.4259 0.95238,0.4762 1.42857,0.7143 2.21549,1.1078 0.76302,0.8024 3.57143,0 0.94392,-0.2697 2.0048,-0.2272 2.85714,-0.7143 0.87706,-0.5011 1.42857,-1.4285 2.14286,-2.1428 0.71429,-0.7143 1.42857,-1.4286 2.14286,-2.1429 0.71428,-0.7143 1.55572,-1.3208 2.14285,-2.1428 1.43662,-2.0113 1.56767,-3.4136 2.14286,-5.7143 0.2381,-0.9524 0.71429,-1.8755 0.71429,-2.8572 0,-0.9817 -0.4446,-1.9132 -0.71429,-2.8571 -0.46476,-1.6267 -0.89067,-3.0335 -2.14286,-4.2857 -1.25218,-1.2522 -2.65906,-1.6781 -4.28571,-2.1429 -1.18108,-0.3374 -3.59917,-1.1145 -5,-0.7143 -1.02383,0.2926 -1.90476,0.9524 -2.85714,1.4286 -2.26323,1.1316 -3.8598,1.717 -5.71429,3.5714 -0.84179,0.8418 -1.5119,1.8477 -2.14286,2.8572 -0.56434,0.9029 -0.99611,1.8841 -1.42857,2.8571 -1.20544,2.7123 -1.81531,4.195 -2.14285,7.1429 -0.10518,0.9465 0,1.9047 0,2.8571 0,2.6753 -0.31944,1.504 0.71428,3.5714 0.2381,0.4762 0.2381,1.1905 0.71429,1.4286 1.81452,0.9073 4.44085,-1.2939 5.71428,-2.1428 0.71429,-0.4762 1.53583,-0.8216 2.14286,-1.4286 0.84179,-0.8418 1.45091,-1.8884 2.14286,-2.8572 1.68953,-2.3653 3.20313,-4.9108 3.57143,-7.8571 0.11812,-0.945 0.13468,-1.9143 0,-2.8571 -0.10648,-0.7454 -0.47619,-1.4286 -0.71429,-2.1429 -0.2381,-0.7143 -0.29664,-1.5164 -0.71429,-2.1429 -0.56033,-0.8405 -1.36683,-1.4961 -2.14285,-2.1428 -1.23405,-1.0284 -2.67498,-1.8744 -4.28572,-2.1429 -0.70456,-0.1174 -1.42857,0 -2.14285,0 -0.95239,0 -1.94141,-0.2616 -2.85715,0 -0.82543,0.2359 -1.3975,1.0027 -2.14285,1.4286 -0.9245,0.5283 -2.04869,0.7356 -2.85715,1.4286 -0.90387,0.7747 -1.3681,1.9532 -2.14285,2.8571 -0.6574,0.767 -1.53677,1.3348 -2.14286,2.1429 -1.34535,1.7938 -2.55381,4.3933 -3.57143,6.4285 -0.47619,0.9524 -1.17032,1.8242 -1.42857,2.8572 -0.23099,0.9239 0,1.9048 0,2.8571 0,1.5463 -0.21296,1.4663 0.71428,2.8572 0.18678,0.2801 0.38763,0.6326 0.71429,0.7143 2.07304,0.5182 1.95284,-0.067 3.57143,-0.7143 0.69907,-0.2797 1.49723,-0.3269 2.14286,-0.7143 1.13088,-0.6785 2.2083,-2.5982 2.85714,-3.5714 0.47619,-0.7143 1.0904,-1.3538 1.42857,-2.1429 0.38671,-0.9023 0.44459,-1.9132 0.71429,-2.8571 0.56937,-1.9928 1.06604,-2.1752 0.71428,-4.2858 -0.45701,-2.742 -0.60248,-1.6459 -2.14286,-3.5714 -0.53627,-0.6703 -0.75822,-1.6066 -1.42857,-2.1428 -0.58793,-0.4704 -1.46942,-0.3776 -2.14285,-0.7143 -0.76784,-0.3839 -1.32845,-1.1571 -2.14286,-1.4286 -1.54234,-0.5141 -2.89188,0.3161 -4.28572,0.7143 -0.94392,0.2697 -1.95482,0.3276 -2.85714,0.7143 -0.70976,0.3042 -4.817061,3.3885 -4.999998,3.5714 -1.601453,1.6015 -2.666136,3.6774 -3.571429,5.7143 -0.520744,1.1717 -0.907828,2.3997 -1.428571,3.5714 -0.432454,0.973 -1.13605,1.8333 -1.428572,2.8572 -0.196229,0.6868 0,1.4285 0,2.1428 0,0.7143 -0.319438,1.504 0,2.1429 0.238095,0.4762 0.952381,0.4762 1.428572,0.7143 0.47619,0.2381 0.896174,0.7142 1.428571,0.7142 0.882644,0 2.71767,-1.0016 3.571429,-1.4285 0.952378,-0.4762 1.990688,-0.8097 2.857138,-1.4286 1.9454,-1.3896 2.26621,-2.4584 3.57143,-4.2857 0.69195,-0.9687 1.61046,-1.7924 2.14286,-2.8572 0.43903,-0.878 0.47619,-1.9047 0.71429,-2.8571 0.23809,-0.9524 0.44459,-1.9132 0.71428,-2.8571 0.20685,-0.724 0.71429,-1.39 0.71429,-2.1429 0,-0.7529 -0.47619,-1.4286 -0.71429,-2.1429 -0.92724,-2.7817 -0.18189,-1.6104 -2.14286,-3.5714 -0.47619,-0.4762 -0.8511,-1.0821 -1.42857,-1.4286 -0.64562,-0.3873 -1.42857,-0.4761 -2.14285,-0.7142 -0.71429,-0.2381 -1.38994,-0.7143 -2.14286,-0.7143 -1.00169,0 -4.511846,1.8639 -5.000001,2.1428 -1.512257,0.8642 -3.266867,2.1451 -4.285715,3.5715 -0.618899,0.8664 -0.952381,1.9047 -1.428571,2.8571 -0.476191,0.9524 -1.054697,1.8602 -1.428571,2.8572 -0.887526,2.3667 -0.714286,2.7364 -0.714286,5 0,0.7142 -0.140083,1.4424 0,2.1428 0.238095,1.1905 0.952381,1.9048 2.142857,2.1429 1.809863,0.3619 2.609884,-0.1557 4.285714,-0.7143 2.824703,-0.9416 2.24814,-0.4984 5.000003,-2.8572 2.36552,-2.0275 4.61491,-4.9254 5.71428,-7.8571 0.3447,-0.9192 0.4446,-1.9132 0.71429,-2.8571 0.20684,-0.724 0.71428,-1.39 0.71428,-2.1429 0,-0.7529 -0.47619,-1.4286 -0.71428,-2.1429 -0.2381,-0.7143 -0.32691,-1.4972 -0.71429,-2.1428 -0.34648,-0.5775 -0.95238,-0.9524 -1.42857,-1.4286 -0.47619,-0.4762 -0.90271,-1.0079 -1.42857,-1.4286 -1.29899,-1.0392 -2.61801,-1.8649 -4.285714,-2.1428 -1.474752,-0.2458 -3.717328,0.1645 -5,0.7143 -0.789054,0.3381 -1.428572,0.9523 -2.142857,1.4285 -0.714286,0.4762 -1.593282,0.7691 -2.142857,1.4286 -0.681665,0.818 -0.952381,1.9048 -1.428572,2.8571 -0.47619,0.9524 -1.054697,1.8602 -1.428571,2.8572 -0.344695,0.9192 -0.501327,1.8988 -0.714286,2.8571 -0.488955,2.2003 -1.03757,4.1656 -0.714286,6.4286 0.10648,0.7454 0.32691,1.4972 0.714286,2.1429 0.346479,0.5774 0.889823,1.0245 1.428571,1.4285 1.018336,0.7638 2.303707,1.0765 3.571429,0.7143 1.023825,-0.2925 1.932642,-0.9003 2.857143,-1.4285 0.745356,-0.426 1.483366,-0.879 2.142857,-1.4286 1.524488,-1.2704 3.257584,-3.355 4.285717,-5 0.56434,-0.903 0.95238,-1.9048 1.42857,-2.8572 0.47619,-0.9523 1.13605,-1.8333 1.42857,-2.8571 0.19623,-0.6868 0,-1.4286 0,-2.1429 0,-3.61 0.30117,-1.9536 -0.71429,-5 -0.23809,-0.7143 -0.29663,-1.5164 -0.71428,-2.1428 -1.617047,-2.4256 -4.473329,-3.523 -7.142858,-4.2857 -2.5997,-0.7428 -3.588207,-1.0299 -6.428572,-0.7143 -3.232368,0.3591 -6.180598,2.1937 -8.571428,4.2857 -1.013624,0.8869 -2.049021,1.7796 -2.857143,2.8571 -0.703499,0.938 -2.596696,5.5605 -2.857143,6.4286 C 72.859917,1024.7815 73,1025.1288 73,1027.6479 c 0,0.7143 -0.265279,1.4797 0,2.1429 0.452646,1.1316 2.47605,2.1428 3.571429,2.1428 0.752923,0 1.450811,-0.4177 2.142857,-0.7143 4.151349,-1.7791 1.73357,-0.7716 5,-3.5714 0.903877,-0.7748 2.015349,-1.3011 2.857143,-2.1429 0.841793,-0.8418 1.428571,-1.9047 2.142857,-2.8571 0.714286,-0.9524 1.564711,-1.8165 2.142857,-2.8572 0.622683,-1.1208 1.02311,-2.355 1.428571,-3.5714 0.644102,-1.9323 1.006465,-3.669 0.714286,-5.7143 -0.106479,-0.7453 -0.47619,-1.4285 -0.714286,-2.1428 -0.238095,-0.7143 -0.296639,-1.5164 -0.714285,-2.1429 -0.789858,-1.1848 -2.968061,-2.9126 -4.285715,-3.5714 -1.141741,-0.5709 -3.931995,-1.1234 -5,-1.4286 -0.723953,-0.2068 -1.389934,-0.7143 -2.142857,-0.7143 -0.752923,0 -1.428571,0.4762 -2.142857,0.7143 -1.742838,0.581 -2.901051,0.7582 -4.285714,2.1429 -0.607026,0.607 -0.952381,1.4286 -1.428572,2.1428 -1.973116,2.9597 -1.220363,1.3101 -2.142857,5 -0.549574,2.1983 -1.098169,3.411 -0.714286,5.7143 0.08753,0.5252 0.476191,0.9524 0.714286,1.4286 0.238095,0.4762 0.337824,1.0521 0.714286,1.4286 0.376462,0.3764 0.906513,0.6098 1.428571,0.7143 1.431332,0.2862 3.008892,-0.076 4.285715,-0.7143 0.767834,-0.3839 1.444295,-0.9296 2.142857,-1.4286 0.96873,-0.692 2.015349,-1.3011 2.857143,-2.1429 1.538193,-1.5382 2.722716,-3.7339 3.571428,-5.7143 0.296591,-0.692 0.507442,-1.4189 0.714286,-2.1428 0.520809,-1.8228 0.981111,-3.1322 0.714286,-5 -0.138833,-0.9718 -0.444595,-1.9132 -0.714286,-2.8572 -0.206844,-0.7239 -0.243938,-1.5549 -0.714286,-2.14281 -0.536278,-0.67034 -1.428571,-0.95238 -2.142857,-1.42857 -0.714286,-0.47619 -1.428571,-0.95238 -2.142857,-1.42857 -1.543217,-1.02881 -2.403816,-1.87401 -4.285714,-2.14286 -2.527047,-0.361 -2.809838,-0.0158 -5,0.71429 -1.742838,0.58095 -2.901051,0.75819 -4.285715,2.14286 -0.607026,0.60702 -0.952381,1.42857 -1.428571,2.14285 -0.476191,0.71431 -1.090406,1.35381 -1.428572,2.14281 -0.945272,2.2057 -0.714285,3.4039 -0.714285,5.7143 0,0.7143 -0.117428,1.4383 0,2.1429 0.292989,1.7579 0.749184,2.5262 2.142857,3.5714 0.425918,0.3195 0.906513,0.6099 1.428571,0.7143 1.279919,0.256 3.168494,-0.044 4.285715,-0.7143 0.577465,-0.3465 0.902707,-1.0079 1.428571,-1.4286 0.670348,-0.5362 1.535831,-0.8215 2.142857,-1.4285 1.739833,-1.7399 1.487134,-2.705 2.142857,-5 0.206844,-0.724 0.476191,-1.4286 0.714286,-2.1429 0.238095,-0.7143 0.714286,-1.3899 0.714286,-2.1428 0,-0.9817 -0.444594,-1.91326 -0.714286,-2.85718 -0.206844,-0.72395 -0.377568,-1.46942 -0.714286,-2.14285 -0.901063,-1.80213 -1.528397,-2.24269 -2.857143,-3.57143 -0.714285,-0.71429 -1.35406,-1.51182 -2.142857,-2.14286 -0.415732,-0.33259 -0.972044,-0.44037 -1.428571,-0.71429 -0.736127,-0.44167 -1.317423,-1.19273 -2.142857,-1.42857 -0.915737,-0.26164 -1.904762,0 -2.857143,0 -0.714286,0 -1.43829,-0.11743 -2.142857,0 -0.542995,0.0905 -2.957839,0.9377 -3.571429,1.42857 -0.788796,0.63104 -1.496173,1.36684 -2.142857,2.14286 -0.549576,0.65949 -1.090406,1.35381 -1.428571,2.14286 -0.945272,2.20563 -0.714286,3.40386 -0.714286,5.71428 0,0.71431 -0.117428,1.43831 0,2.14281 0.27795,1.6677 1.103662,2.9868 2.142857,4.2858 0.420692,0.5258 0.851106,1.0821 1.428571,1.4285 0.645627,0.3874 1.400179,0.5905 2.142858,0.7143 1.502897,0.2505 2.933453,-0.038 4.285714,-0.7143 0.767834,-0.3839 1.428571,-0.9523 2.142857,-1.4285 0.714286,-0.4762 1.535831,-0.8216 2.142857,-1.4286 0.607026,-0.607 0.952381,-1.4286 1.428572,-2.1429 0.47619,-0.7143 1.090405,-1.3538 1.428571,-2.1428 0.887526,-2.07091 0.714286,-2.95175 0.714286,-5.00002 0,-0.71429 0.117428,-1.43829 0,-2.14286 -0.27795,-1.6677 -1.103662,-2.98672 -2.142857,-4.28571 -0.420692,-0.52587 -0.952381,-0.95238 -1.428572,-1.42857 -0.714286,-0.71429 -1.320862,-1.55572 -2.142857,-2.14286 -1.269841,-0.90703 -3.445572,-1.69874 -5,-2.14286 -1.822833,-0.52081 -3.132224,-0.98111 -5,-0.71428 -0.971825,0.13883 -1.954826,0.32758 -2.857143,0.71428 -1.45669,0.6243 -3.332252,2.42728 -4.285714,3.57143 -0.549576,0.65949 -0.952381,1.42857 -1.428572,2.14286 -0.47619,0.71428 -1.090405,1.3538 -1.428571,2.14286 -0.503652,1.17518 -0.993595,3.60345 -0.714286,5 0.104412,0.52205 0.476191,0.95238 0.714286,1.42857 0.634921,1.26984 0.555556,1.82539 2.142857,2.14285 2.245798,0.44911 1.824078,-0.0153 3.571429,-0.71428 0.699071,-0.27963 1.516387,-0.29664 2.142857,-0.71429 0.840498,-0.56033 1.428571,-1.42857 2.142857,-2.14285 0.714286,-0.71429 1.496173,-1.36684 2.142857,-2.14286 0.941977,-1.13037 2.380802,-3.72976 2.857143,-5 0.945272,-2.52073 0.714286,-3.09818 0.714286,-5.71429 0,-0.71428 0.196229,-1.45605 0,-2.14285 -0.292522,-1.02383 -1.009129,-1.87845 -1.428572,-2.85715 -0.296591,-0.69204 -0.32691,-1.49723 -0.714285,-2.14285 -0.678533,-1.13089 -2.598165,-2.2083 -3.571429,-2.85715 -0.714286,-0.47619 -1.328446,-1.1571 -2.142857,-1.42857 -0.677631,-0.22588 -1.428572,0 -2.142857,0 -0.952381,0 -1.941406,-0.26164 -2.857143,0 -0.825434,0.23584 -1.428572,0.95238 -2.142857,1.42857 -1.481029,0.98736 -3.303613,2.00007 -4.285715,3.57143 -1.005786,1.60926 -1.720444,4.52771 -2.142857,6.42857 -0.521923,2.34866 -1.011707,4.0492 -0.714285,6.42857 0.121763,0.97412 0.169741,2.04033 0.714285,2.85715 0.476191,0.71428 1.375023,1.04465 2.142857,1.42857 1.410935,0.70547 2.727154,0.93694 4.285715,0.71428 0.971825,-0.13883 1.904762,-0.47619 2.857143,-0.71428 0.952381,-0.2381 1.979091,-0.27526 2.857142,-0.71429 1.641793,-0.82089 4.60941,-3.71097 5.714286,-5 1.985844,-2.31682 1.339688,-2.67937 2.857143,-5.71428 0.383917,-0.76784 1.192733,-1.31743 1.428571,-2.14286 0.26164,-0.91574 0,-1.90476 0,-2.85714 0,-0.71429 0.225877,-1.46523 0,-2.14286 -0.450531,-1.35159 -1.881823,-2.59611 -2.857142,-3.57143 -1.579716,-1.57971 -2.296811,-2.57698 -4.285715,-3.57143 -1.352261,-0.67613 -2.782816,-0.96477 -4.285714,-0.71428 -0.742679,0.12378 -1.443785,0.43465 -2.142857,0.71428 -0.494318,0.19773 -1.012839,0.3817 -1.428572,0.71429 -0.788796,0.63104 -1.582525,1.30236 -2.142857,2.14286 -0.417646,0.62647 -0.47619,1.42857 -0.714285,2.14285 -1.015455,3.04637 -0.714286,1.38994 -0.714286,5 0,0.47619 -0.115493,0.9666 0,1.42857 0.369471,1.47789 1.173042,2.14286 2.857143,2.14286 0.532397,0 0.934253,-0.51656 1.428571,-0.71428 3.136497,-1.2546 1.520859,0.21871 3.571429,-2.85715 1.184199,-1.7763 2.080362,-2.92858 2.857143,-5 0.945272,-2.52072 0.714285,-3.09818 0.714285,-5.71428 0,-2.44983 0.225877,-1.93531 -0.714285,-4.28572 -0.217497,-0.54374 -0.747259,-1.8022 -1.428572,-2.14285 -0.650889,-0.32545 -1.111774,0.29188 -1.428571,0.71428 -1.849797,2.4664 -1.361385,1.87411 -2.142857,5 -0.238096,0.95238 -0.605876,1.88146 -0.714286,2.85714 -0.34182,3.07638 0.115118,4.14702 0.714286,7.14286"
       id="path4461"
       inkscape:connector-curvature="0" />
    <path
       style="color:#000000;fill:none;stroke:#000000;stroke-width:5;stroke-linecap:round;stroke-linejoin:round;stroke-miterlimit:4;stroke-opacity:1;stroke-dasharray:none;stroke-dashoffset:10;marker:none;visibility:visible;display:inline;overflow:visible;enable-background:accumulate"
       d="m 195.14286,896.21932 c -0.47619,-0.95238 -0.95238,-1.90476 -1.42857,-2.85714 -0.2381,-0.23809 -0.56371,-0.41312 -0.71429,-0.71429 -0.10648,-0.21295 0,-0.47619 0,-0.71428 0,-0.47619 0,-0.95238 0,-1.42857 0,-0.2381 -0.16836,-0.54593 0,-0.71429 0.16836,-0.16836 0.50133,0.10648 0.71429,0 0.30117,-0.15058 0.41311,-0.5637 0.71428,-0.71428 0.21296,-0.10648 0.50133,0.10648 0.71429,0 0.30117,-0.15059 0.39484,-0.60781 0.71428,-0.71429 0.45176,-0.15058 0.97682,0.15058 1.42857,0 0.31944,-0.10648 0.39485,-0.60781 0.71429,-0.71429 0.45175,-0.15058 0.9666,0.1155 1.42857,0 0.5165,-0.12912 0.91207,-0.58516 1.42857,-0.71428 0.46198,-0.11549 0.9666,0.11549 1.42857,0 0.51651,-0.12913 0.91207,-0.58516 1.42858,-0.71429 0.46197,-0.11549 0.95238,0 1.42857,0 0.47619,0 0.95238,0 1.42857,0 0.47619,0 0.9666,-0.11549 1.42857,0 0.5165,0.12913 0.95238,0.47619 1.42857,0.71429 0.47619,0.23809 0.98559,0.41896 1.42857,0.71428 0.98265,0.6551 0.73463,1.10195 1.42857,2.14286 0.18678,0.28017 0.52751,0.43412 0.71429,0.71429 0.29532,0.44298 0.54593,0.92349 0.71429,1.42857 0.0753,0.22588 0,0.47619 0,0.71428 0,0.4762 0,0.95239 0,1.42858 0,0.47619 0.11549,0.96659 0,1.42857 -0.5179,2.07159 -0.55727,0.8359 -1.42858,2.14285 -0.25003,0.37505 -0.72668,1.9089 -1.42857,2.14286 -0.45175,0.15059 -0.97681,-0.15058 -1.42857,0 -0.31944,0.10648 -0.39485,0.60781 -0.71428,0.71429 -0.45176,0.15058 -0.95239,0 -1.42858,0 -0.71428,0 -1.42857,0 -2.14285,0"
       id="path4469"
       inkscape:connector-curvature="0" />
    <path
       style="color:#000000;fill:none;stroke:#000000;stroke-width:5;stroke-linecap:round;stroke-linejoin:round;stroke-miterlimit:4;stroke-opacity:1;stroke-dasharray:none;stroke-dashoffset:10;marker:none;visibility:visible;display:inline;overflow:visible;enable-background:accumulate"
       d="m 53.714286,891.21932 c -1.190476,-0.47619 -2.33858,-1.07633 -3.571429,-1.42857 -0.457868,-0.13082 -0.952381,0 -1.428571,0 -0.476191,0 -0.952381,0 -1.428572,0 -0.47619,0 -0.952381,0 -1.428571,0 -0.476191,0 -0.966599,-0.11549 -1.428572,0 -0.516501,0.12913 -0.95238,0.47619 -1.428571,0.71429 -1.729741,0.86487 -1.05211,0.33782 -2.142857,1.42857 -0.238095,0.23809 -0.527509,0.43412 -0.714286,0.71428 -0.295321,0.44299 -0.418965,0.98559 -0.714286,1.42858 -0.186777,0.28016 -0.563701,0.41311 -0.714285,0.71428 C 37.849415,896.52049 38,896.72768 38,898.36218 c 0,0.47619 0.115493,0.9666 0,1.42857 -0.956141,3.82457 -1.0168,-1.51257 0,3.57143 0.09339,0.46694 -0.264143,1.03236 0,1.42857 0.295321,0.44298 0.98559,0.41897 1.428571,0.71429 0.280166,0.18677 0.413117,0.5637 0.714286,0.71428 1.410935,0.70547 2.727154,0.93694 4.285714,0.71429 0.971826,-0.13883 1.904762,-0.47619 2.857143,-0.71429"
       id="path4471"
       inkscape:connector-curvature="0" />
    <path
       style="color:#000000;fill:none;stroke:#000000;stroke-width:5;stroke-linecap:round;stroke-linejoin:round;stroke-miterlimit:4;stroke-opacity:1;stroke-dasharray:none;stroke-dashoffset:10;marker:none;visibility:visible;display:inline;overflow:visible;enable-background:accumulate"
       d="m 113,843.36218 c -0.95238,-0.23809 -1.94566,-0.34969 -2.85714,-0.71429 -0.31264,-0.12505 -0.47619,-0.47619 -0.71429,-0.71428 -0.23809,-0.2381 -0.47619,-0.47619 -0.71428,-0.71429 -0.2381,-0.23809 -0.56371,-0.41311 -0.71429,-0.71428 -0.10648,-0.21296 0,-0.47619 0,-0.71429 0,-0.23809 0,-0.47619 0,-0.71428 0,-0.2381 -0.10648,-0.50133 0,-0.71429 0.15058,-0.30117 0.60781,-0.39485 0.71429,-0.71429 0.15058,-0.45175 -0.15059,-0.97681 0,-1.42857 0.10648,-0.31944 0.47619,-0.47619 0.71428,-0.71428 0.2381,-0.2381 0.47619,-0.47619 0.71429,-0.71429 0.23809,-0.23809 0.47619,-0.47619 0.71428,-0.71428 0.2381,-0.2381 0.5637,-0.41312 0.71429,-0.71429 0.10648,-0.21296 -0.10648,-0.50133 0,-0.71429 0.15058,-0.30117 0.5637,-0.41311 0.71428,-0.71428 0.57143,-1.14286 -0.33333,-0.52381 -0.71428,-0.71429 -0.30117,-0.15058 -0.41312,-0.5637 -0.71429,-0.71428 -0.21296,-0.10648 -0.47619,0 -0.71428,0 -0.47619,0 -0.95238,0 -1.42857,0 -0.2381,0 -0.54593,0.16836 -0.71429,0 -0.16836,-0.16836 0,-0.47619 0,-0.71429 0,-1.9808 -0.10648,1.1402 0.71429,-2.14286 0.11549,-0.46197 -0.15059,-0.97681 0,-1.42857 0.10648,-0.31944 0.6078,-0.39484 0.71428,-0.71428 0.15059,-0.45176 0,-0.95238 0,-1.42857 0,-0.47619 0,-0.95239 0,-1.42858 0,-0.23809 0.0753,-0.4884 0,-0.71428 -0.16836,-0.50508 -0.54593,-0.9235 -0.71428,-1.42857 -0.29558,-0.88673 0.58636,-0.77825 -0.71429,-1.42857 -0.21296,-0.10648 -0.54593,0.16835 -0.71429,0 -0.16835,-0.16836 0.16836,-0.54593 0,-0.71429 -0.16835,-0.16836 -0.54592,0.16836 -0.71428,0 -0.16836,-0.16836 -0.16836,-0.54593 0,-0.71429 0.16836,-0.16835 0.54593,0.16836 0.71428,0 0.16836,-0.16835 -0.10647,-0.50132 0,-0.71428 0.15059,-0.30117 0.4762,-0.47619 0.71429,-0.71429 0.2381,-0.23809 0.47619,-0.47619 0.71429,-0.71428 0.23809,-0.2381 0.5637,-0.41312 0.71428,-0.71429 0.10648,-0.21296 0,-0.47619 0,-0.71428 0,-0.47619 0,-0.95239 0,-1.42858 0,-0.23809 0.10648,-0.50132 0,-0.71428 -0.3269,-0.6538 -1.62086,-1.25458 -2.14286,-1.42857 -0.0148,-0.005 -2.09838,0.0148 -2.14285,0 -3.15301,-1.05101 2.59512,-0.71429 -2.14286,-0.71429 -0.47619,0 -0.95238,0 -1.42857,0 -0.2381,0 -0.71429,0.2381 -0.71429,0 0,-0.23809 0.50133,0.10648 0.71429,0 0.30117,-0.15058 0.43412,-0.52751 0.71428,-0.71428 0.44299,-0.29532 0.95239,-0.47619 1.42858,-0.71429 0.71428,-0.47619 1.42857,-0.95238 2.14285,-1.42857"
       id="path4495"
       inkscape:connector-curvature="0" />
    <path
       style="color:#000000;fill:none;stroke:#000000;stroke-width:5;stroke-linecap:round;stroke-linejoin:round;stroke-miterlimit:4;stroke-opacity:1;stroke-dasharray:none;stroke-dashoffset:10;marker:none;visibility:visible;display:inline;overflow:visible;enable-background:accumulate"
       d="M 81.571429,853.36218 C 80.99879,850.35155 79.085881,853.19084 78,852.64789 c -0.301169,-0.15058 -0.394847,-0.6078 -0.714286,-0.71428 -0.451754,-0.15059 -0.966598,0.11549 -1.428571,0 -0.516501,-0.12913 -0.923495,-0.54593 -1.428572,-0.71429 -0.225876,-0.0753 -0.488408,0.0753 -0.714285,0 -0.505076,-0.16836 -0.912071,-0.58516 -1.428572,-0.71428 -0.461972,-0.1155 -0.976817,0.15058 -1.428571,0 -0.319438,-0.10648 -0.413116,-0.5637 -0.714286,-0.71429 -0.212959,-0.10648 -0.501327,0.10648 -0.714286,0 -0.301169,-0.15058 -0.413116,-0.5637 -0.714285,-0.71428 -0.212959,-0.10648 -0.545927,0.16835 -0.714286,0 -0.168359,-0.16836 0,-0.47619 0,-0.71429 0,-0.23809 0,-0.47619 0,-0.71429 0,-0.23809 -0.168359,-0.54592 0,-0.71428 0.168359,-0.16836 0.545927,0.16836 0.714286,0 0.16629,-0.16629 -0.148983,-1.13061 0,-1.42857 0.150584,-0.30117 0.563701,-0.41312 0.714285,-0.71429 0.10648,-0.21296 0,-0.47619 0,-0.71428 0,-0.2381 0.10648,-0.50133 0,-0.71429 -0.150584,-0.30117 -0.47619,-0.47619 -0.714285,-0.71429 -0.238095,-0.23809 -0.413117,-0.5637 -0.714286,-0.71428 -0.212959,-0.10648 -0.47619,0 -0.714286,0 -0.714285,0 -1.428571,0 -2.142857,0 -0.47619,0 -0.952381,0 -1.428571,0 -0.238095,0 -0.501327,-0.10648 -0.714286,0 -0.185964,0.093 -0.870196,1.27266 -1.428571,0.71428 -0.168359,-0.16835 0.106479,-0.50132 0,-0.71428 -0.150585,-0.30117 -0.563701,-0.41312 -0.714286,-0.71429 -0.10648,-0.21296 0,-0.47619 0,-0.71428 0,-0.47619 0,-0.95238 0,-1.42857 0,-0.2381 0.106479,-0.50133 0,-0.71429 -0.150585,-0.30117 -0.563701,-0.41312 -0.714286,-0.71429 -0.106479,-0.21295 0.10648,-0.50132 0,-0.71428 -0.150584,-0.30117 -0.47619,-0.47619 -0.714286,-0.71429 -0.238095,-0.23809 -0.413116,-0.5637 -0.714285,-0.71428 -0.212959,-0.10648 -0.476191,0 -0.714286,0 -0.238095,0 -0.47619,0 -0.714286,0 -0.714285,0 -1.428571,0 -2.142857,0 -0.238095,0 -0.545927,0.16836 -0.714286,0 -0.168358,-0.16836 0.168359,-0.54593 0,-0.71429 -0.168358,-0.16836 -0.545926,0.16836 -0.714285,0 -0.16629,-0.16629 0.148983,-1.1306 0,-1.42857 -0.150585,-0.30117 -0.563701,-0.41312 -0.714286,-0.71429 -0.212959,-0.42591 0.212959,-1.00265 0,-1.42857 -0.150585,-0.30117 -0.563701,-0.41311 -0.714286,-0.71428 -0.106479,-0.21296 0.168359,-0.54593 0,-0.71429 -0.168358,-0.16836 -0.545927,0.16836 -0.714285,0 -0.168359,-0.16836 0.168358,-0.54593 0,-0.71428 -0.168359,-0.16836 -0.545927,0.16835 -0.714286,0 -0.168359,-0.16836 0,-0.47619 0,-0.71429 0,-0.47619 0,-0.95238 0,-1.42857 0,-1.9808 0.106479,1.1402 -0.714286,-2.14286 -0.380952,-1.52381 0.606092,-1.2626 -0.714286,-2.14286 -2.131784,-1.42119 -0.648154,-0.27248 -2.857142,-0.71428 -0.738302,-0.14766 -1.389934,-0.71429 -2.142858,-0.71429 -0.752923,0 -1.404555,0.56663 -2.142857,0.71429 -0.466943,0.0934 -0.952381,0 -1.428571,0 -0.238095,0 -0.476191,0 -0.714286,0 -0.238095,0 -0.714286,0.23809 -0.714286,0 0,-0.2381 0.545927,0.16836 0.714286,0 0.168359,-0.16836 -0.07529,-0.48841 0,-0.71429 0.168359,-0.50507 0.394848,-1.00265 0.714286,-1.42857 1.017799,-1.35706 2.165683,-1.91998 3.571428,-2.85714"
       id="path4499"
       inkscape:connector-curvature="0" />
    <path
       style="color:#000000;fill:none;stroke:#000000;stroke-width:5;stroke-linecap:round;stroke-linejoin:round;stroke-miterlimit:4;stroke-opacity:1;stroke-dasharray:none;stroke-dashoffset:10;marker:none;visibility:visible;display:inline;overflow:visible;enable-background:accumulate"
       d="M 163.57143,84.571428 C 161.12542,85.317582 161.3636,82.396087 160,81.714286 c -0.21296,-0.10648 -0.50133,0.106479 -0.71429,0 C 158.98455,81.563701 158.8726,81.150584 158.57143,81 c -0.21296,-0.10648 -0.47619,0 -0.71429,0 -0.71428,0 -1.42857,0 -2.14285,0 -0.95239,0 -1.90477,0 -2.85715,0 -0.47619,0 -0.9666,-0.115493 -1.42857,0 -0.5165,0.129125 -0.91207,0.58516 -1.42857,0.714286 -0.46197,0.115493 -0.9666,-0.115494 -1.42857,0 -0.5165,0.129125 -0.95238,0.47619 -1.42857,0.714285 -3.84,1.92 0.98285,-0.491428 -2.85715,1.428572 -0.95238,0.47619 -1.90476,0.952381 -2.85714,1.428571 C 140.95238,85.523809 140.44298,85.704679 140,86 c -0.98264,0.655096 -0.73463,1.101942 -1.42857,2.142857 -0.18678,0.280166 -0.47619,0.47619 -0.71429,0.714286 -0.23809,0.238095 -0.47619,0.47619 -0.71428,0.714285 -0.2381,0.238096 -0.60781,0.394848 -0.71429,0.714286 -0.15058,0.451754 0.15059,0.976818 0,1.428572 -0.10648,0.319438 -0.6078,0.394847 -0.71428,0.714285 -0.15059,0.451754 0,0.952381 0,1.428572 0,0.238095 0,0.47619 0,0.714285 0,0.476191 -0.1155,0.966599 0,1.428572 0.12912,0.516501 0.58516,0.91207 0.71428,1.428571 1.00339,4.013539 -1.04622,-0.497897 0.71429,2.142857 0.29532,0.442982 0.47619,0.952382 0.71428,1.428572 0.2381,0.47619 0.33783,1.05211 0.71429,1.42857 0.37646,0.37646 0.98559,0.41897 1.42857,0.71429 0.28017,0.18677 0.47619,0.47619 0.71429,0.71428 3.08949,3.0895 -0.18923,0.11195 2.85714,2.14286 0.28016,0.18678 0.39485,0.60781 0.71428,0.71429 0.45176,0.15058 0.96163,-0.0934 1.42858,0 0.7383,0.14766 1.40455,0.56662 2.14285,0.71428 0.46695,0.0934 0.95238,0 1.42857,0 0.47619,0 0.95239,0 1.42858,0 0.71428,0 1.42857,0 2.14285,0 0.47619,0 0.9666,0.11549 1.42857,0 0.51651,-0.12912 0.91207,-0.58516 1.42858,-0.71428 3.269,-0.81726 -0.74269,1.44277 3.57142,-0.71429 0.30117,-0.15058 0.47619,-0.47619 0.71429,-0.71429 0.47619,-0.47619 0.88982,-1.02451 1.42857,-1.42857 0.42592,-0.31944 0.95238,-0.47619 1.42857,-0.71428 0.47619,-0.2381 1.05211,-0.33783 1.42857,-0.71429 0.75293,-0.75292 0.67565,-2.10422 1.42858,-2.857142 1.5873,-1.587301 1.50793,0.396826 2.14285,-2.142857 0.1155,-0.461972 -0.0934,-0.961628 0,-1.428571 0.14766,-0.738302 0.56663,-1.404555 0.71429,-2.142857 0.0934,-0.466943 0,-0.952381 0,-1.428572 0,-0.47619 0.11549,-0.966599 0,-1.428571 -0.12913,-0.516501 -0.51656,-0.934253 -0.71429,-1.428572 -0.27963,-0.699071 -0.22429,-1.571195 -0.71428,-2.142857 -0.99217,-1.157527 -2.35179,-1.942411 -3.57143,-2.857143 -1.63854,-1.228903 -3.20192,-2.590656 -5,-3.571428 -1.62713,-0.887526 -3.27462,-0.714286 -5,-0.714286 -0.71429,0 -1.44244,-0.140083 -2.14286,0 C 150.90651,80.390126 150.5165,80.870875 150,81 c -0.46197,0.115493 -1.00265,-0.212959 -1.42857,0 -0.60234,0.301169 -0.95238,0.952381 -1.42857,1.428571 -0.2381,0.238095 -0.47619,0.476191 -0.71429,0.714286"
       id="path4501"
       inkscape:connector-curvature="0"
       transform="translate(0,796.36218)" />
    <path
       style="color:#000000;fill:none;stroke:#000000;stroke-width:5;stroke-linecap:round;stroke-linejoin:round;stroke-miterlimit:4;stroke-opacity:1;stroke-dasharray:none;stroke-dashoffset:10;marker:none;visibility:visible;display:inline;overflow:visible;enable-background:accumulate"
       d="m 100.57143,879.93361 c -2.380954,0 -4.761906,0 -7.142858,0 -0.476191,0 -0.952381,0 -1.428572,0 -0.47619,0 -0.976817,-0.15059 -1.428571,0 -0.319439,0.10648 -0.476191,0.47619 -0.714286,0.71428 -0.476191,0.2381 -0.91207,0.58517 -1.428571,0.71429 -0.461973,0.11549 -0.966599,-0.11549 -1.428572,0 -0.516501,0.12913 -0.952381,0.47619 -1.428571,0.71429 -1.92,0.96 -0.937143,0.46857 -2.857143,1.42857 -0.476191,0.23809 -0.98559,0.41896 -1.428572,0.71428 -0.280166,0.18678 -0.434119,0.52751 -0.714285,0.71429 -0.442982,0.29532 -1.05211,0.33782 -1.428572,0.71428 -0.376461,0.37647 -0.418965,0.98559 -0.714286,1.42858 -0.373554,0.56033 -1.055016,0.86824 -1.428571,1.42857 -0.295321,0.44298 -0.418965,0.98559 -0.714286,1.42857 -0.186777,0.28016 -0.607806,0.39485 -0.714285,0.71428 -0.150585,0.45176 0.115493,0.9666 0,1.42858 -0.129126,0.5165 -0.545927,0.92349 -0.714286,1.42857 -0.07529,0.22587 0,0.47619 0,0.71428 0,0.47619 0,0.95238 0,1.42857 0,0.4762 0,0.95239 0,1.42858 0,0.47619 -0.150585,0.97681 0,1.42857 0.106479,0.31944 0.527508,0.43412 0.714286,0.71428 0.29532,0.44298 0.418965,0.98559 0.714285,1.42857 0.186778,0.28017 0.527509,0.43412 0.714286,0.71429 0.295321,0.44298 0.337824,1.05211 0.714286,1.42857 0.376461,0.37646 1.002654,0.39485 1.428571,0.71429 0.538748,0.40406 0.889824,1.02451 1.428572,1.42857 0.425917,0.31944 0.952381,0.47619 1.428571,0.71428 0.476191,0.2381 0.906513,0.60988 1.428572,0.71429 0.700414,0.14008 1.442442,-0.14008 2.142857,0 0.522058,0.10441 0.91207,0.58516 1.428571,0.71429 0.461973,0.11549 0.952381,0 1.428572,0 1.190476,0 2.380952,0 3.571428,0 0.952381,0 1.904762,0 2.857143,0 0.714286,0 1.442442,0.14008 2.142857,0 0.522058,-0.10442 0.952381,-0.47619 1.428572,-0.71429 0.47619,-0.2381 0.95238,-0.47619 1.428571,-0.71429 0.952377,-0.47619 1.904767,-0.95238 2.857147,-1.42857 0.47619,-0.23809 1.00265,-0.39484 1.42857,-0.71428 0.53874,-0.40406 0.95238,-0.95238 1.42857,-1.42857 0.23809,-0.2381 0.47619,-0.47619 0.71428,-0.71429 1.80504,-1.80503 1.12741,-0.82623 2.14286,-2.85714 0.2381,-0.47619 0.58516,-0.91207 0.71429,-1.42857 0.11549,-0.46198 0,-0.95238 0,-1.42858 0,-0.23809 -0.0753,-0.4884 0,-0.71428 0.16836,-0.50508 0.58516,-0.91207 0.71428,-1.42857 0.1155,-0.46198 0,-0.95238 0,-1.42857 0,-0.2381 0.0753,-0.48841 0,-0.71429 -0.16836,-0.50508 -0.58516,-0.91207 -0.71428,-1.42857 -0.1155,-0.46197 0.15058,-0.97682 0,-1.42857 -0.10648,-0.31944 -0.60781,-0.39485 -0.71429,-0.71429 -0.15058,-0.45175 0.1155,-0.9666 0,-1.42857 -0.43832,-1.75328 -1.84841,-2.22646 -2.85714,-3.57143 -0.31944,-0.42592 -0.25204,-1.16443 -0.71429,-1.42857 -1.30744,-0.74711 -2.85714,-0.95238 -4.28571,-1.42857 -2.078793,-0.69293 -4.148133,-1.88466 -6.428573,-1.42857 -0.522058,0.10441 -0.934253,0.51656 -1.428571,0.71428 -0.699072,0.27963 -1.404555,0.56663 -2.142857,0.71429 -0.466944,0.0934 -1.032357,-0.26414 -1.428572,0 -0.442981,0.29532 -0.337824,1.05211 -0.714285,1.42857 -0.376462,0.37646 -1.133251,0.2713 -1.428572,0.71429 0,1.76528 0.336718,1.09185 -0.714286,2.14285"
       id="path4503"
       inkscape:connector-curvature="0" />
    <path
       style="color:#000000;fill:none;stroke:#000000;stroke-width:5;stroke-linecap:round;stroke-linejoin:round;stroke-miterlimit:4;stroke-opacity:1;stroke-dasharray:none;stroke-dashoffset:10;marker:none;visibility:visible;display:inline;overflow:visible;enable-background:accumulate"
       d="m 149.28571,93.857143 c 3.80953,0.952381 3.80953,0.952381 0,0 z"
       id="path4505"
       inkscape:connector-curvature="0"
       transform="translate(0,796.36218)" />
    <path
       style="color:#000000;fill:none;stroke:#000000;stroke-width:5;stroke-linecap:round;stroke-linejoin:round;stroke-miterlimit:4;stroke-opacity:1;stroke-dasharray:none;stroke-dashoffset:10;marker:none;visibility:visible;display:inline;overflow:visible;enable-background:accumulate"
       d="M 90,96.714286 C 90.952381,96.47619 92.619048,95.047619 92.857143,96 93.095238,96.952381 90.952381,96.47619 90,96.714286 z"
       id="path4509"
       inkscape:connector-curvature="0"
       transform="translate(0,796.36218)" />
    <path
       style="color:#000000;fill:none;stroke:#000000;stroke-width:5;stroke-linecap:round;stroke-linejoin:round;stroke-miterlimit:4;stroke-opacity:1;stroke-dasharray:none;stroke-dashoffset:10;marker:none;visibility:visible;display:inline;overflow:visible;enable-background:accumulate"
       d="m 123.42857,915.50504 c 0.47619,0.95238 2.38095,2.38095 1.42857,2.85714 -0.95238,0.47619 -1.42857,-3.92194 -1.42857,-2.85714 0,1.28218 1.02311,2.35504 1.42857,3.57143 0.0753,0.22587 0,0.47619 0,0.71428 0,0.2381 -0.16836,0.54593 0,0.71429 0.16836,0.16836 0.54593,-0.16836 0.71429,0 0.16836,0.16836 0,0.47619 0,0.71428 0,1.90476 0,3.80953 0,5.71429 0,0.71428 0,1.42857 0,2.14286 0,0.23809 0.16836,0.54592 0,0.71428 -0.16836,0.16836 -0.54593,-0.16836 -0.71429,0 -0.47761,0.47761 0.47761,0.95096 0,1.42857 -0.16836,0.16836 -0.54592,-0.16836 -0.71428,0 -0.16836,0.16836 0.10648,0.50133 0,0.71429 -0.15059,0.30117 -0.5637,0.41311 -0.71429,0.71428 -0.10648,0.21296 0.10648,0.50133 0,0.71429 -0.15058,0.30117 -0.5637,0.41312 -0.71428,0.71429 -0.10648,0.21295 0.16835,0.54592 0,0.71428 -0.16836,0.16836 -0.54593,-0.16836 -0.71429,0 -0.16836,0.16836 0.16836,0.54593 0,0.71429 -0.16836,0.16836 -0.54593,-0.16836 -0.71429,0 -0.16835,0.16836 0.16836,0.54592 0,0.71428 -0.16835,0.16836 -0.54592,-0.16836 -0.71428,0 -0.16836,0.16836 0.10648,0.50133 0,0.71429 -0.30117,0.60234 -1.1274,0.82623 -1.42857,1.42857 -0.10648,0.21296 0.16836,0.54593 0,0.71429 -0.16836,0.16835 -0.54593,-0.16836 -0.71429,0 -0.33672,0.33671 0.33672,1.09185 0,1.42857 -0.16836,0.16836 -0.54593,-0.16836 -0.71428,0 -0.33672,0.33671 0.33671,1.09185 0,1.42857 -0.16836,0.16836 -0.54593,-0.16836 -0.71429,0 -0.47761,0.47761 0.47761,0.95096 0,1.42857 -0.16836,0.16836 -0.54593,-0.16836 -0.71429,0 -0.16835,0.16836 0,0.47619 0,0.71429 0,0.71428 0,1.42857 0,2.14285 0,0.2381 -0.16835,0.54593 0,0.71429 0.16629,0.16629 1.13061,-0.14898 1.42858,0 0.30117,0.15058 0.41311,0.5637 0.71428,0.71428 0.21296,0.10648 0.47619,0 0.71429,0 0.23809,0 0.54592,0.16836 0.71428,0 0.16836,-0.16835 -0.16836,-0.54592 0,-0.71428 0.16836,-0.16836 0.47619,0 0.71429,0 0.95238,0 1.90476,0 2.85714,0 0.2381,0 0.47619,0 0.71429,0 0.23809,0 0.50132,0.10648 0.71428,0 0.30117,-0.15059 0.41312,-0.5637 0.71429,-0.71429 0.21296,-0.10648 0.54593,0.16836 0.71428,0 0.16836,-0.16836 -0.16835,-0.54592 0,-0.71428 0.16836,-0.16836 0.50133,0.10648 0.71429,0 0.30117,-0.15059 0.47619,-0.47619 0.71429,-0.71429 0.23809,-0.23809 0.47619,-0.47619 0.71428,-0.71428"
       id="path4511"
       inkscape:connector-curvature="0" />
    <path
       style="color:#000000;fill:none;stroke:#000000;stroke-width:5;stroke-linecap:round;stroke-linejoin:round;stroke-miterlimit:4;stroke-opacity:1;stroke-dasharray:none;stroke-dashoffset:10;marker:none;visibility:visible;display:inline;overflow:visible;enable-background:accumulate"
       d="m 117.85714,182.42857 c 1.05293,0.7897 2.7897,2.35847 4.28572,2.85714 0.22587,0.0753 0.48841,-0.0753 0.71428,0 0.50508,0.16836 0.9235,0.54593 1.42857,0.71429 0.22588,0.0753 0.47619,0 0.71429,0 0.47619,0 0.97682,-0.15058 1.42857,0 0.31944,0.10648 0.37757,0.71429 0.71429,0.71429 0.53239,0 0.92349,-0.54593 1.42857,-0.71429 0.22588,-0.0753 0.47619,0 0.71428,0 0.47619,0 0.97682,0.15058 1.42858,0 0.31943,-0.10648 0.47619,-0.47619 0.71428,-0.71429 0.71429,-0.71428 1.42857,-1.42857 2.14286,-2.14285 0.23809,-0.2381 0.43412,-0.52751 0.71428,-0.71429 0.44299,-0.29532 0.98559,-0.41896 1.42858,-0.71428 0.28016,-0.18678 0.41311,-0.56371 0.71428,-0.71429 0.21296,-0.10648 0.50133,0.10648 0.71429,0 0.60234,-0.30117 0.82623,-1.1274 1.42857,-1.42857 0.21296,-0.10648 0.47619,0 0.71428,0"
       id="path4513"
       inkscape:connector-curvature="0"
       transform="translate(0,796.36218)" />
    <path
       style="color:#000000;fill:none;stroke:#000000;stroke-width:5;stroke-linecap:round;stroke-linejoin:round;stroke-miterlimit:4;stroke-opacity:1;stroke-dasharray:none;stroke-dashoffset:10;marker:none;visibility:visible;display:inline;overflow:visible;enable-background:accumulate"
       d="m 148.57143,40.285714 c -0.47619,-0.952381 -2.38095,-2.380952 -1.42857,-2.857143 0.95238,-0.47619 1.42857,3.921937 1.42857,2.857143 0,-1.282182 -1.02311,-2.355044 -1.42857,-3.571429 -0.0753,-0.225876 0,-0.47619 0,-0.714285 0,-0.238095 0,-0.476191 0,-0.714286 0,-0.238095 -0.16836,-0.545927 0,-0.714286 0.16836,-0.168358 0.47619,0 0.71428,0 1.19048,0 2.38096,0 3.57143,0 0.2381,0 0.54593,0.168359 0.71429,0 0.16836,-0.168358 -0.16836,-0.545927 0,-0.714285 0.16836,-0.168359 0.54592,0.168358 0.71428,0 0.16836,-0.168359 -0.16836,-0.545927 0,-0.714286 0.16836,-0.168359 0.54593,0.168359 0.71429,0 0.16836,-0.168359 0,-0.476191 0,-0.714286 0,-0.714286 0,-1.428571 0,-2.142857 0,-0.238095 0.10648,-0.501327 0,-0.714286 -0.093,-0.185964 -1.27266,-0.870195 -0.71429,-1.428571 0.16836,-0.168359 0.47619,0 0.71429,0 0.47619,0 0.95238,0 1.42857,0 0.2381,0 0.54593,0.168359 0.71429,0 0.16835,-0.168359 -0.10648,-0.501327 0,-0.714286 0.30117,-0.602338 1.1274,-0.826233 1.42857,-1.428571 0.10648,-0.212959 0,-0.476191 0,-0.714286 0,-0.238095 0.16836,-0.545927 0,-0.714286 -0.16836,-0.168358 -0.54593,0.168359 -0.71429,0 -0.16836,-0.168358 0.16836,-0.545927 0,-0.714285 -0.16836,-0.168359 -0.71428,0.238095 -0.71428,0 0,-0.238096 0.50132,-0.10648 0.71428,0 0.30117,0.150584 0.37757,0.714285 0.71429,0.714285 0.33671,0 0.41311,-0.563701 0.71428,-0.714285 0.21296,-0.10648 0.54593,0.168358 0.71429,0 0.16629,-0.166291 -0.14898,-1.130606 0,-1.428572 0.15058,-0.301169 0.5637,-0.413116 0.71428,-0.714286 0.10648,-0.212958 0,-0.47619 0,-0.714285 0,-0.238095 0,-0.476191 0,-0.714286 0,-0.238095 -0.23809,-0.714286 0,-0.714286 0.2381,0 -0.16835,0.545927 0,0.714286 0.16836,0.168359 0.47619,0 0.71429,0 0.2381,0 0.47619,0 0.71429,0 0.23809,0 0.50132,0.106479 0.71428,0 0.30117,-0.150585 0.47619,-0.47619 0.71429,-0.714286 0.23809,-0.238095 0.47619,-0.47619 0.71428,-0.714285 0.2381,-0.238096 0.47619,-0.476191 0.71429,-0.714286 0.23809,-0.238095 0.60781,-0.394848 0.71428,-0.714286 0.15059,-0.451754 -0.11549,-0.966599 0,-1.428571 0.12913,-0.516501 0.54593,-0.923495 0.71429,-1.428572 0.0753,-0.225877 0,-0.47619 0,-0.714285 0,-0.238096 0,-0.476191 0,-0.714286 0,-0.238095 -0.16836,-0.545927 0,-0.714286 0.16836,-0.168359 0.47619,0 0.71429,0 0.47619,0 0.97681,-0.150584 1.42857,0 0.31944,0.10648 0.37757,0.714286 0.71428,0.714286 0.75293,0 1.41242,-0.531675 2.14286,-0.714286 0.23099,-0.05775 0.48841,0.07529 0.71429,0 0.50507,-0.168359 0.95238,-0.47619 1.42857,-0.714286 0.86743,-0.433714 1.59748,-0.61051 2.14285,-1.428571 0.29533,-0.4429812 0.54593,-0.9234951 0.71429,-1.4285714 0.0753,-0.225877 0,-0.4761905 0,-0.7142857 0,-0.2380953 -0.2381,-0.7142857 0,-0.7142857 0.2381,0 0.10648,0.5013268 0,0.7142857 -0.15058,0.3011693 -0.47619,0.4761905 -0.71429,0.7142857"
       id="path4537"
       inkscape:connector-curvature="0"
       transform="translate(0,796.36218)" />
  </g>
</svg>
